<?xml version="1.0" encoding="utf-8"?>
<!-- Generator: Adobe Illustrator 27.5.0, SVG Export Plug-In . SVG Version: 6.00 Build 0)  -->
<svg version="1.1" xmlns="http://www.w3.org/2000/svg" xmlns:xlink="http://www.w3.org/1999/xlink" x="0px" y="0px"
	 viewBox="0 0 2500 2500" style="enable-background:new 0 0 2500 2500;" xml:space="preserve">
<g id="Background">
	<rect style="fill:#FFFFFF;" width="2500" height="2500"/>
</g>
<g id="Illustration">
	<g id="Barcode_scanning_1_">
		<circle style="fill:#F2E6DC;" cx="1250" cy="1250" r="915"/>
		<g>
			<rect x="1248.646" y="1597.432" style="fill:#EFBC73;" width="822.056" height="458.232"/>
			<path style="fill:#E0AA63;" d="M1452.052,2021.322c-0.553,0-1-0.447-1-1v-387.548c0-0.553,0.447-1,1-1s1,0.447,1,1v387.548
				C1453.052,2020.875,1452.604,2021.322,1452.052,2021.322z"/>
			<path style="fill:#E0AA63;" d="M1819.113,2021.322c-0.553,0-1-0.447-1-1v-207.475c0-0.553,0.447-1,1-1s1,0.447,1,1v207.475
				C1820.113,2020.875,1819.666,2021.322,1819.113,2021.322z"/>
			<g>
				<path style="fill:#F7F1EB;" d="M1897.017,1792.227c-0.26,0-0.516-0.102-0.707-0.293l-41.479-41.479l-34.677,34.677
					c-0.391,0.391-1.023,0.391-1.414,0l-35.79-35.79l-41.033,41.035c-0.287,0.286-0.717,0.373-1.09,0.217
					c-0.374-0.154-0.617-0.52-0.617-0.924v-184.172c0-0.553,0.447-1,1-1s1,0.447,1,1v181.758l40.033-40.035
					c0.375-0.375,1.039-0.375,1.414,0l35.79,35.79l34.677-34.677c0.375-0.375,1.039-0.375,1.414,0l40.479,40.479v-183.315
					c0-0.553,0.447-1,1-1s1,0.447,1,1v185.729c0,0.404-0.243,0.77-0.617,0.924
					C1897.275,1792.202,1897.146,1792.227,1897.017,1792.227z"/>
			</g>
		</g>
		<g>
			<g>
				<path style="fill:#FFFFFF;" d="M1062.405,1113.394l-30.167-10.542c2.437-15.65,3.582-31.297,3.51-46.815l31.375-5.95
					l-20.151-106.255l-31.445,5.964c-5.675-14.597-12.488-28.729-20.374-42.259l24.251-20.888l-70.578-81.944l-24.196,20.841
					c-12.096-9.723-25.05-18.572-38.812-26.413l10.542-30.166l-102.094-35.676l-10.541,30.167
					c-15.649-2.437-31.297-3.583-46.815-3.51l-5.95-31.375l-106.255,20.152l5.963,31.445c-14.597,5.674-28.729,12.487-42.26,20.373
					l-20.888-24.251l-81.944,70.578l20.841,24.196c-9.722,12.096-18.572,25.05-26.412,38.812l-30.166-10.541h-0.001l-35.676,102.094
					l30.167,10.541c-2.437,15.65-3.581,31.296-3.51,46.815l-31.375,5.951l20.151,106.254l31.446-5.964
					c5.674,14.598,12.487,28.729,20.373,42.26l-24.25,20.888l70.577,81.943h0.001l24.195-20.841
					c12.096,9.722,25.05,18.572,38.812,26.412l-10.541,30.166l102.094,35.676l10.541-30.167c15.649,2.438,31.296,3.582,46.815,3.51
					l5.95,31.375l0,0l106.254-20.15l-5.963-31.447c14.597-5.674,28.729-12.487,42.26-20.373l20.887,24.252l81.944-70.579
					l-20.84-24.196c9.722-12.097,18.571-25.051,26.412-38.812l30.167,10.542L1062.405,1113.394z M910.242,1123.892
					c-34.751,90.108-134.904,138.392-227.044,109.458c-101.746-31.949-155.243-142.918-116.87-242.419
					c34.751-90.108,134.903-138.392,227.044-109.459C895.118,913.424,948.616,1024.392,910.242,1123.892z"/>
			</g>
			<path style="fill:#F2E6DC;" d="M738.327,1295.023c-26.167,0-52.638-4.328-78.414-13.335
				c-59.906-20.935-108.074-63.944-135.633-121.106c-27.558-57.163-31.205-121.636-10.271-181.542
				c18.882-54.033,56.608-99.422,106.231-127.805c49.129-28.101,106.645-37.81,161.958-27.336c0.542,0.103,0.898,0.626,0.796,1.169
				c-0.102,0.542-0.628,0.897-1.168,0.796C668.375,804.382,554.05,870.518,515.898,979.7
				c-42.851,122.625,22.051,257.249,144.676,300.1c101.319,35.407,213.746-2.065,273.396-91.125
				c0.308-0.459,0.928-0.581,1.388-0.274c0.459,0.308,0.581,0.929,0.275,1.388C890.648,1256.947,815.892,1295.023,738.327,1295.023z
				"/>
		</g>
		<g>
			<g>
				<path style="fill:#363E44;" d="M2075.129,759.414c-0.419,0-0.81-0.265-0.949-0.685c-0.174-0.523,0.109-1.09,0.634-1.265
					l30.893-10.281l-35.234-105.865l-31.684,10.545l-0.401-0.729c-7.876-14.315-16.974-28.122-27.04-41.035l-0.511-0.656
					l22.149-24.957l-83.446-74.065l-22.199,25.013l-0.713-0.43c-14-8.44-28.775-15.837-43.917-21.983l-0.771-0.314l6.72-32.762
					l-109.3-22.418l-6.704,32.688l-0.832-0.016c-16.374-0.319-32.875,0.669-49.056,2.942c-0.547,0.078-1.053-0.305-1.129-0.852
					c-0.077-0.547,0.304-1.052,0.852-1.129c16.009-2.249,32.331-3.249,48.54-2.977l6.772-33.019l113.218,23.223l-6.788,33.093
					c14.713,6.019,29.074,13.207,42.715,21.381l22.424-25.266l86.438,76.721l-22.374,25.208
					c9.758,12.588,18.602,26.01,26.301,39.914l32.001-10.65l0.316,0.949l36.182,108.711l-32.791,10.914
					C2075.34,759.398,2075.233,759.414,2075.129,759.414z M1951.355,747.437c-0.432,0-0.829-0.28-0.958-0.715
					c-28.544-95.866-127.331-154.535-224.897-133.564c-0.539,0.118-1.071-0.228-1.188-0.768c-0.116-0.54,0.228-1.071,0.768-1.188
					c47.604-10.232,97.06-2.229,139.249,22.534c42.599,25.003,73.846,64.927,87.984,112.415c0.158,0.529-0.144,1.086-0.673,1.243
					C1951.546,747.423,1951.449,747.437,1951.355,747.437z"/>
			</g>
		</g>
		<g>
			<path style="fill:#D3BBA3;" d="M1707.032,1030.966H776.775c-0.553,0-1-0.447-1-1V425.228c0-0.553,0.447-1,1-1h930.257
				c0.553,0,1,0.447,1,1v604.737C1708.032,1030.519,1707.585,1030.966,1707.032,1030.966z M777.775,1028.966h928.257V426.228
				H777.775V1028.966z"/>
			<path style="fill:#D3BBA3;" d="M1092.378,995.852c-0.553,0-1-0.447-1-1V460.342c0-0.553,0.447-1,1-1s1,0.447,1,1v534.511
				C1093.378,995.405,1092.931,995.852,1092.378,995.852z"/>
			<path style="fill:#D3BBA3;" d="M1457.068,728.598c-0.553,0-1-0.447-1-1v-88.345c0-0.553,0.447-1,1-1s1,0.447,1,1v88.345
				C1458.068,728.15,1457.621,728.598,1457.068,728.598z"/>
			<g>
				<path style="fill:#D3BBA3;" d="M1534.469,618.771c-0.26,0-0.516-0.102-0.707-0.293l-41.206-41.208l-34.448,34.448
					c-0.391,0.391-1.023,0.391-1.414,0l-35.554-35.554l-40.765,40.766c-0.286,0.286-0.716,0.373-1.09,0.217
					c-0.374-0.154-0.617-0.52-0.617-0.924V433.241c0-0.553,0.447-1,1-1s1,0.447,1,1V613.81l39.765-39.766
					c0.375-0.375,1.039-0.375,1.414,0l35.554,35.554l34.448-34.448c0.375-0.375,1.039-0.375,1.414,0l40.206,40.208V433.241
					c0-0.553,0.447-1,1-1s1,0.447,1,1v184.53c0,0.404-0.243,0.77-0.617,0.924C1534.728,618.747,1534.598,618.771,1534.469,618.771z"
					/>
			</g>
		</g>
		<g>
			<g>
				<path style="fill:#363E44;" d="M934.061,781.694c0,0-95.499-151.103-228.775-150.299
					C572.01,632.2,537.163,732.743,580.612,807.298c61.779,106.009,160.932-0.72,160.932-0.72s-53.736,93.431,55.64,145.842
					C906.561,1004.83,1006.44,891.75,934.061,781.694z"/>
				<path style="fill:#84524D;" d="M1056.146,1127.532h-65.951c-11.299,0-20.458-9.159-20.458-20.458V906.536
					c0-11.299,9.159-20.458,20.458-20.458h65.951c11.299,0,20.458,9.159,20.458,20.458v200.538
					C1076.604,1118.373,1067.444,1127.532,1056.146,1127.532z"/>
				<path style="fill:#84524D;" d="M1031.679,750.123c4.857-0.471,51.437-4.284,79.495,27.567
					c20.878,23.699,23.385,54.12,19.874,105.779c-4.133,60.835-15.104,96.622-32.615,108.63
					c-27.668,18.973-110.581-23.46-141.759-76.576c-22.505-38.341-19.939-87.724,3.846-125.653
					C984.24,752.046,1028.579,750.424,1031.679,750.123z"/>
				<g>
					<path style="fill:#FFFFFF;" d="M1141.977,831.364c-0.053,0.402,0.199,0.731,0.146,1.133c-0.002,0.017-0.01,0.03-0.013,0.047
						c1.051,5.604,2.173,11.513,4.23,16.829c0.911,2.354,2.474,3.695,3.583,5.815c0.814,1.557,1.587,3.049,2.451,4.548
						c13.443-13.286,18.597-30.404,18.597-30.404S1157.183,827.471,1141.977,831.364z"/>
					<path style="fill:#363E44;" d="M1097.087,876.009c0.205,0.235,0.417,0.464,0.629,0.692c4.504,0.491,27.01,2.234,45.329-9.456
						c3.436-2.192,6.496-4.721,9.226-7.406c0.232-1.546,0.39-3.117,0.39-4.728c0-9.455-4.158-17.919-10.717-23.732
						c-5.683,1.485-11.592,3.782-17.121,7.31C1106.225,850.557,1098.362,872.178,1097.087,876.009z"/>
				</g>
				<g>
					<path style="fill:#FFFFFF;" d="M1035.274,869.5c-0.119,6.737,1.039,11.849,4.708,17.16c16.032-0.96,28.621-7.258,28.621-7.258
						s-12.329-17.121-31.68-24.946C1035.162,859.097,1035.358,864.718,1035.274,869.5z"/>
					<path style="fill:#363E44;" d="M1036.869,854.441c-2.16-0.853-4.407-1.596-6.742-2.184c-23.532-5.92-46.741,5.707-46.741,5.707
						s14.944,21.225,38.477,27.145c6.078,1.529,12.133,1.882,17.775,1.572C1044.595,876.409,1043.722,863.998,1036.869,854.441z"/>
				</g>
				<path style="fill:#363E44;" d="M907.794,781.276c-16.407,53.021,12.721,121.535,61.815,164.641
					c1.646-19.757-5.638-76.635,3.742-90.104c11.675-16.763,6.728-58.441,1.639-77.001c63.207,5.474,156.047,23.01,157.913,21.023
					c5.513-5.867-5.132-28.57-29.536-56.158c-13.77-15.566-35.741-38.025-62.663-39.035
					C992.808,702.847,928.163,715.45,907.794,781.276z"/>
				<g>
					<path style="fill:#84524D;" d="M981.989,874.022c8.363,17.688,3.022,37.756-11.928,44.825
						c-14.95,7.068-33.849-1.54-42.212-19.228c-8.363-17.688-3.022-37.756,11.928-44.825
						C954.727,847.726,973.626,856.334,981.989,874.022z"/>
					<path style="fill:#363E44;" d="M942.994,897.473c-0.314,0-0.624-0.148-0.819-0.425c-0.724-1.029-1.368-2.139-1.916-3.296
						c-4.479-9.473-1.546-20.288,6.537-24.111c2.001-0.945,4.178-1.374,6.41-1.348c0.552,0.013,0.989,0.471,0.977,1.022
						c-0.013,0.545-0.458,0.978-1,0.978c-0.007,0-0.015,0-0.023,0c-1.926-0.063-3.794,0.345-5.511,1.156
						c-7.085,3.351-9.591,12.973-5.584,21.447c0.499,1.055,1.086,2.064,1.745,3.001c0.317,0.452,0.209,1.075-0.243,1.393
						C943.394,897.414,943.192,897.473,942.994,897.473z"/>
				</g>
				<path style="fill:#363E44;" d="M1101.044,909.666c-0.19,0-0.383-0.054-0.554-0.168c-0.459-0.306-0.584-0.927-0.277-1.387
					c1.764-2.648,2.449-5.113,2.036-7.325c-0.432-2.329-1.938-3.7-4.023-5.598c-1.604-1.46-3.422-3.114-5.164-5.607
					c-2.22-3.179-3.725-6.921-4.474-11.122c-0.097-0.544,0.265-1.063,0.809-1.16c0.554-0.097,1.064,0.266,1.16,0.809
					c0.698,3.914,2.093,7.389,4.145,10.328c1.613,2.31,3.344,3.885,4.871,5.273c2.193,1.997,4.089,3.722,4.644,6.711
					c0.511,2.742-0.275,5.703-2.339,8.801C1101.685,909.51,1101.367,909.666,1101.044,909.666z"/>
				<path style="fill:#363E44;" d="M1083.702,939.29c-1.902,0-3.997-0.272-6.195-1.006c-7.522-2.508-10.907-8.672-11.766-10.501
					c-0.234-0.5-0.02-1.096,0.48-1.33c0.505-0.236,1.097-0.019,1.33,0.48c0.772,1.648,3.82,7.197,10.588,9.454
					c6.072,2.023,11.277,0.143,13.233-0.759c0.503-0.232,1.097-0.012,1.327,0.489c0.231,0.502,0.012,1.096-0.489,1.327
					C1090.746,938.121,1087.64,939.29,1083.702,939.29z"/>
				<path style="fill:#363E44;" d="M1066.647,996.16c-0.09,0-0.18-0.012-0.27-0.037c-64.06-17.878-80.239-45.325-80.897-46.485
					c-0.271-0.48-0.103-1.089,0.376-1.362c0.482-0.269,1.091-0.102,1.363,0.375c0.158,0.277,16.545,27.923,79.694,45.547
					c0.532,0.148,0.843,0.7,0.694,1.231C1067.486,995.871,1067.085,996.16,1066.647,996.16z"/>
				<g>
					<path style="fill:#EFBC73;" d="M900.788,816.038l235.192-18.322c-2.132-71.813-51.49-129.918-113.8-131.696
						c-65.045-1.858-119.537,58.359-121.71,134.497C900.32,805.759,900.446,810.934,900.788,816.038z"/>
					<polygon style="fill:#EFBC73;" points="892.019,833.505 1183.764,814.998 1136.355,784.135 900.47,800.517 					"/>
					<path style="fill:#363E44;" d="M1084.298,780.925c-0.526,0-0.967-0.411-0.997-0.942c-2.481-43.125-21.272-66.939-36.599-79.321
						c-16.586-13.4-32.737-16.664-32.898-16.695c-0.542-0.105-0.896-0.631-0.79-1.173c0.105-0.543,0.632-0.899,1.173-0.79
						c0.678,0.132,16.804,3.393,33.772,17.103c15.641,12.637,34.814,36.906,37.338,80.762c0.032,0.552-0.39,1.024-0.94,1.056
						C1084.337,780.924,1084.317,780.925,1084.298,780.925z"/>
					<path style="fill:#363E44;" d="M892.021,834.505c-0.082,0-0.166-0.01-0.249-0.031c-0.535-0.137-0.857-0.682-0.721-1.217
						l8.633-33.699l144.976-7.727c0.583-0.023,1.023,0.394,1.053,0.946c0.029,0.551-0.395,1.022-0.946,1.052l-143.51,7.648
						l-8.268,32.275C892.872,834.205,892.466,834.505,892.021,834.505z"/>
				</g>
			</g>
			<path style="fill:#8B865C;" d="M1666.802,1605.026c0,0-67.282-279.947-263.533-444.137
				c-44.266-37.034-98.645-59.905-155.984-66.485c-121.278-13.917-369.21-31.365-582.78,23.334v743.582h788.931v-173.912
				L1666.802,1605.026z"/>
			<path style="fill:#8B865C;" d="M664.505,1117.738c0,0-430.477,325.167-266.137,606.694
				c141.645,242.648,396.847-23.308,396.847-23.308L664.505,1117.738z"/>
			<g>
				<polygon style="fill:#363E44;" points="891.482,1785.549 815.921,1785.549 815.921,1086.461 891.482,1079.533 				"/>
				<polygon style="fill:#363E44;" points="1218.123,1086.461 1142.562,1079.533 1142.562,1785.549 1218.123,1785.549 				"/>
			</g>
			<rect x="776.775" y="1444.474" style="fill:#363E44;" width="480.494" height="416.845"/>
			<g>
				<g>
					<path style="fill:#EFBC73;" d="M945.99,1549.843c9.671-82.632,86.025-357.186,86.025-357.186h230.079v84.02l-187.063,36.848
						l-68.901,248.092c-3.694,13.302-15.806,22.509-29.612,22.509l0,0C958.132,1584.127,943.853,1568.104,945.99,1549.843z"/>
					<rect x="1132.417" y="1204.469" style="fill:#FFFFFF;" width="115.564" height="67.421"/>
				</g>
				<g>
					<path style="fill:#84524D;" d="M516.378,1545.659l148.581,214.731l404.281-293.233c14.859-14.314,17.004-28.376,0-42.059
						c16.568-15.731,16.181-30.28,2.132-41.904c11.504-14.398,7.965-33.741-2.132-43.527l28.825-13.856
						c7.552-1.745,12.902-8.471,12.902-16.222l0,0c0-8.948-7.072-16.295-16.013-16.637l-84.535-3.232
						c-62.087-2.651-123.124,16.659-172.388,54.538L516.378,1545.659z"/>
					<path style="fill:#363E44;" d="M420.251,1565.728c-0.319,0-0.633-0.152-0.827-0.437c-0.311-0.456-0.193-1.078,0.263-1.39
						l73.716-50.335l14.414,22.272c0.3,0.463,0.167,1.082-0.297,1.383c-0.465,0.299-1.082,0.167-1.383-0.297l-13.299-20.55
						l-72.024,49.179C420.642,1565.671,420.445,1565.728,420.251,1565.728z"/>
				</g>
			</g>
			<path style="fill:#776E42;" d="M1132.417,1090.316H912.942l0-22.575c77.055-16.419,149.965-15.377,219.475,0L1132.417,1090.316z"
				/>
			<g>
				<g>
					<g>
						<path style="fill:#D3BBA3;" d="M1215.533,1864.306c-0.111,0-0.225-0.019-0.336-0.058c-0.52-0.186-0.791-0.758-0.606-1.278
							l141.304-396.735h309.967c0.553,0,1,0.447,1,1s-0.447,1-1,1h-308.557l-140.829,395.407
							C1216.329,1864.051,1215.944,1864.306,1215.533,1864.306z"/>
					</g>
					<g>
						<polygon style="fill:#FFFFFF;" points="1539.676,1882.453 1230.415,1882.453 1371.481,1486.382 1680.743,1486.382 						"/>
					</g>
				</g>
				<g>
					<path style="fill:#84524D;" d="M1679.421,1609.171c0,19.507-1.645,35.322-35.431,35.322c-33.787,0-86.922-15.814-86.922-35.322
						c0-19.507,53.135-35.321,86.922-35.321C1677.777,1573.849,1679.421,1589.663,1679.421,1609.171z"/>
					<path style="fill:#84524D;" d="M1539.127,1661.078c0-19.508,53.135-35.322,86.921-35.322c33.787,0,35.432,15.814,35.432,35.322
						H1539.127z"/>
					<path style="fill:#84524D;" d="M1661.48,1661.078c0,19.508-1.645,35.321-35.432,35.321c-33.787,0-86.921-15.814-86.921-35.321
						H1661.48z"/>
					<path style="fill:#84524D;" d="M1521.184,1712.985c0-19.508,53.135-35.321,86.922-35.321c33.787,0,35.432,15.814,35.432,35.321
						H1521.184z"/>
					<path style="fill:#84524D;" d="M1643.538,1712.985c0,19.508-1.645,35.321-35.432,35.321c-33.787,0-86.922-15.814-86.922-35.321
						H1643.538z"/>
					<path style="fill:#84524D;" d="M1528.338,1757.648c0-15.506,42.236-28.077,69.093-28.077c26.857,0,28.164,12.57,28.164,28.077
						H1528.338z"/>
					<path style="fill:#84524D;" d="M1625.596,1757.648c0,15.506-1.307,28.077-28.164,28.077c-26.857,0-69.093-12.57-69.093-28.077
						H1625.596z"/>
				</g>
			</g>
		</g>
		<g>
			<path style="fill:#D3BBA3;" d="M1304.541,582.309h-172.836V455.196h172.836V582.309z M1133.705,580.309h168.836V457.196h-168.836
				V580.309z"/>
			<g>
				<rect x="1142.319" y="465.978" style="fill:#FFFFFF;" width="12.812" height="105.548"/>
				<rect x="1162.661" y="465.978" style="fill:#FFFFFF;" width="6.406" height="105.548"/>
				<rect x="1222.644" y="465.978" style="fill:#FFFFFF;" width="6.406" height="105.548"/>
				<rect x="1272.31" y="465.978" style="fill:#FFFFFF;" width="9.722" height="105.548"/>
				<rect x="1289.066" y="465.978" style="fill:#FFFFFF;" width="4.861" height="105.548"/>
				<rect x="1174.327" y="465.978" style="fill:#FFFFFF;" width="23.304" height="105.548"/>
				<rect x="1232.737" y="465.978" style="fill:#FFFFFF;" width="34.305" height="105.548"/>
				<rect x="1205.5" y="465.978" style="fill:#FFFFFF;" width="11.652" height="105.548"/>
			</g>
		</g>
		<g>
			<polygon style="opacity:0.4;fill:#FFFFFF;" points="1296.622,1389.315 1190.198,1238.179 1296.622,765.338 2148.636,765.338 
				2148.636,1389.315 			"/>
			<g>
				<g>
					<path style="fill:#FFFFFF;" d="M1992.875,1390.315h-696.253c-0.553,0-1-0.447-1-1V828.888c0-0.553,0.447-1,1-1s1,0.447,1,1
						v559.428h695.253c0.553,0,1,0.447,1,1S1993.428,1390.315,1992.875,1390.315z"/>
					<path style="fill:#D3BBA3;" d="M2149.637,1390.315h-108.274c-0.553,0-1-0.447-1-1s0.447-1,1-1h106.274V766.338h-850.015v32.176
						c0,0.553-0.447,1-1,1s-1-0.447-1-1v-34.176h854.015V1390.315z"/>
					<g>
						<rect x="1344.57" y="814.125" style="fill:#E6D0BE;" width="63.9" height="526.402"/>
						<rect x="1446.022" y="814.125" style="fill:#E6D0BE;" width="31.95" height="526.402"/>
						<rect x="1745.177" y="814.125" style="fill:#E6D0BE;" width="31.95" height="526.402"/>
						<rect x="1992.875" y="814.125" style="fill:#E6D0BE;" width="48.488" height="526.402"/>
						<rect x="2076.444" y="814.125" style="fill:#E6D0BE;" width="24.244" height="526.402"/>
						<rect x="1504.204" y="814.125" style="fill:#E6D0BE;" width="116.225" height="526.402"/>
						<rect x="1795.514" y="814.125" style="fill:#E6D0BE;" width="171.091" height="526.402"/>
						<rect x="1659.674" y="814.125" style="fill:#E6D0BE;" width="58.113" height="526.402"/>
					</g>
				</g>
				<path style="fill:#D3BBA3;" d="M1267.044,1348.309c-0.314,0-0.624-0.147-0.818-0.424l-77.101-109.493l0.098-0.433
					l71.896-319.433c0.12-0.539,0.653-0.879,1.195-0.756c0.539,0.121,0.877,0.656,0.756,1.195l-71.798,319l76.589,108.767
					c0.318,0.452,0.21,1.076-0.241,1.394C1267.443,1348.249,1267.243,1348.309,1267.044,1348.309z"/>
			</g>
		</g>
		<path style="fill:#8B865C;" d="M1202.632,2056.664h-10c-0.552,0-1-0.447-1-1s0.448-1,1-1h10c0.553,0,1,0.447,1,1
			S1203.185,2056.664,1202.632,2056.664z M1182.632,2056.664h-10c-0.552,0-1-0.447-1-1s0.448-1,1-1h10c0.553,0,1,0.447,1,1
			S1183.185,2056.664,1182.632,2056.664z M1162.632,2056.664h-10c-0.552,0-1-0.447-1-1s0.448-1,1-1h10c0.553,0,1,0.447,1,1
			S1163.185,2056.664,1162.632,2056.664z M1142.632,2056.664h-10c-0.552,0-1-0.447-1-1s0.448-1,1-1h10c0.553,0,1,0.447,1,1
			S1143.185,2056.664,1142.632,2056.664z M1122.632,2056.664h-10c-0.552,0-1-0.447-1-1s0.448-1,1-1h10c0.553,0,1,0.447,1,1
			S1123.185,2056.664,1122.632,2056.664z M1102.632,2056.664h-10c-0.552,0-1-0.447-1-1s0.448-1,1-1h10c0.553,0,1,0.447,1,1
			S1103.185,2056.664,1102.632,2056.664z M1082.632,2056.664h-10c-0.552,0-1-0.447-1-1s0.448-1,1-1h10c0.553,0,1,0.447,1,1
			S1083.185,2056.664,1082.632,2056.664z M1062.632,2056.664h-10c-0.552,0-1-0.447-1-1s0.448-1,1-1h10c0.553,0,1,0.447,1,1
			S1063.185,2056.664,1062.632,2056.664z M1042.632,2056.664h-10c-0.552,0-1-0.447-1-1s0.448-1,1-1h10c0.553,0,1,0.447,1,1
			S1043.185,2056.664,1042.632,2056.664z M1022.632,2056.664h-10c-0.552,0-1-0.447-1-1s0.448-1,1-1h10c0.553,0,1,0.447,1,1
			S1023.185,2056.664,1022.632,2056.664z M1002.632,2056.664h-10c-0.552,0-1-0.447-1-1s0.448-1,1-1h10c0.553,0,1,0.447,1,1
			S1003.185,2056.664,1002.632,2056.664z M982.632,2056.664h-10c-0.552,0-1-0.447-1-1s0.448-1,1-1h10c0.553,0,1,0.447,1,1
			S983.185,2056.664,982.632,2056.664z M962.632,2056.664h-10c-0.552,0-1-0.447-1-1s0.448-1,1-1h10c0.553,0,1,0.447,1,1
			S963.185,2056.664,962.632,2056.664z M942.632,2056.664h-10c-0.552,0-1-0.447-1-1s0.448-1,1-1h10c0.553,0,1,0.447,1,1
			S943.185,2056.664,942.632,2056.664z M922.632,2056.664h-10c-0.552,0-1-0.447-1-1s0.448-1,1-1h10c0.553,0,1,0.447,1,1
			S923.185,2056.664,922.632,2056.664z M902.632,2056.664h-10c-0.552,0-1-0.447-1-1s0.448-1,1-1h10c0.553,0,1,0.447,1,1
			S903.185,2056.664,902.632,2056.664z M882.632,2056.664h-10c-0.552,0-1-0.447-1-1s0.448-1,1-1h10c0.553,0,1,0.447,1,1
			S883.185,2056.664,882.632,2056.664z M862.632,2056.664h-10c-0.552,0-1-0.447-1-1s0.448-1,1-1h10c0.553,0,1,0.447,1,1
			S863.185,2056.664,862.632,2056.664z M842.632,2056.664h-10c-0.552,0-1-0.447-1-1s0.448-1,1-1h10c0.553,0,1,0.447,1,1
			S843.185,2056.664,842.632,2056.664z M822.632,2056.664h-10c-0.552,0-1-0.447-1-1s0.448-1,1-1h10c0.553,0,1,0.447,1,1
			S823.185,2056.664,822.632,2056.664z M802.632,2056.664h-10c-0.552,0-1-0.447-1-1s0.448-1,1-1h10c0.553,0,1,0.447,1,1
			S803.185,2056.664,802.632,2056.664z M782.632,2056.664h-10c-0.552,0-1-0.447-1-1s0.448-1,1-1h10c0.553,0,1,0.447,1,1
			S783.185,2056.664,782.632,2056.664z M762.632,2056.664h-10c-0.552,0-1-0.447-1-1s0.448-1,1-1h10c0.553,0,1,0.447,1,1
			S763.185,2056.664,762.632,2056.664z M742.632,2056.664h-10c-0.552,0-1-0.447-1-1s0.448-1,1-1h10c0.553,0,1,0.447,1,1
			S743.185,2056.664,742.632,2056.664z M722.632,2056.664h-10c-0.552,0-1-0.447-1-1s0.448-1,1-1h10c0.553,0,1,0.447,1,1
			S723.185,2056.664,722.632,2056.664z M702.632,2056.664h-10c-0.552,0-1-0.447-1-1s0.448-1,1-1h10c0.553,0,1,0.447,1,1
			S703.185,2056.664,702.632,2056.664z M682.632,2056.664h-10c-0.552,0-1-0.447-1-1s0.448-1,1-1h10c0.553,0,1,0.447,1,1
			S683.185,2056.664,682.632,2056.664z M662.632,2056.664h-10c-0.552,0-1-0.447-1-1s0.448-1,1-1h10c0.553,0,1,0.447,1,1
			S663.185,2056.664,662.632,2056.664z M642.632,2056.664h-10c-0.552,0-1-0.447-1-1s0.448-1,1-1h10c0.553,0,1,0.447,1,1
			S643.185,2056.664,642.632,2056.664z M622.632,2056.664h-10c-0.552,0-1-0.447-1-1s0.448-1,1-1h10c0.553,0,1,0.447,1,1
			S623.185,2056.664,622.632,2056.664z M602.632,2056.664h-10c-0.552,0-1-0.447-1-1s0.448-1,1-1h10c0.553,0,1,0.447,1,1
			S603.185,2056.664,602.632,2056.664z M582.632,2056.664h-10c-0.552,0-1-0.447-1-1s0.448-1,1-1h10c0.553,0,1,0.447,1,1
			S583.185,2056.664,582.632,2056.664z M562.632,2056.664h-10c-0.552,0-1-0.447-1-1s0.448-1,1-1h10c0.553,0,1,0.447,1,1
			S563.185,2056.664,562.632,2056.664z M542.632,2056.664h-10c-0.552,0-1-0.447-1-1s0.448-1,1-1h10c0.553,0,1,0.447,1,1
			S543.185,2056.664,542.632,2056.664z M522.632,2056.664h-10c-0.552,0-1-0.447-1-1s0.448-1,1-1h10c0.553,0,1,0.447,1,1
			S523.185,2056.664,522.632,2056.664z M506.977,2052.319c-0.553,0-1-0.447-1-1v-10c0-0.552,0.447-1,1-1c0.553,0,1,0.448,1,1v10
			C507.977,2051.872,507.529,2052.319,506.977,2052.319z M506.977,2032.319c-0.553,0-1-0.447-1-1v-10c0-0.552,0.447-1,1-1
			c0.553,0,1,0.448,1,1v10C507.977,2031.872,507.529,2032.319,506.977,2032.319z M506.977,2012.319c-0.553,0-1-0.447-1-1v-10
			c0-0.552,0.447-1,1-1c0.553,0,1,0.448,1,1v10C507.977,2011.872,507.529,2012.319,506.977,2012.319z M506.977,1992.319
			c-0.553,0-1-0.447-1-1v-10c0-0.552,0.447-1,1-1c0.553,0,1,0.448,1,1v10C507.977,1991.872,507.529,1992.319,506.977,1992.319z
			 M506.977,1972.319c-0.553,0-1-0.447-1-1v-10c0-0.552,0.447-1,1-1c0.553,0,1,0.448,1,1v10
			C507.977,1971.872,507.529,1972.319,506.977,1972.319z M506.977,1952.319c-0.553,0-1-0.447-1-1v-10c0-0.552,0.447-1,1-1
			c0.553,0,1,0.448,1,1v10C507.977,1951.872,507.529,1952.319,506.977,1952.319z M506.977,1932.319c-0.553,0-1-0.447-1-1v-10
			c0-0.552,0.447-1,1-1c0.553,0,1,0.448,1,1v10C507.977,1931.872,507.529,1932.319,506.977,1932.319z M506.977,1912.319
			c-0.553,0-1-0.447-1-1v-10c0-0.552,0.447-1,1-1c0.553,0,1,0.448,1,1v10C507.977,1911.872,507.529,1912.319,506.977,1912.319z
			 M506.977,1892.319c-0.553,0-1-0.447-1-1v-10c0-0.552,0.447-1,1-1c0.553,0,1,0.448,1,1v10
			C507.977,1891.872,507.529,1892.319,506.977,1892.319z M506.977,1872.319c-0.553,0-1-0.447-1-1v-10c0-0.552,0.447-1,1-1
			c0.553,0,1,0.448,1,1v10C507.977,1871.872,507.529,1872.319,506.977,1872.319z"/>
	</g>
</g>
</svg>
